<svg width="135" height="37" viewBox="0 0 135 37" fill="none" xmlns="http://www.w3.org/2000/svg">
<path d="M42.6216 27V7.97607H55.2251V11.2588H46.603V15.8335H54.7373V18.9316H46.603V23.7173H55.2251V27H42.6216ZM56.8091 27V12.854H60.6587V15.1743H60.751C61.1113 14.3657 61.6519 13.7285 62.3726 13.2627C63.0933 12.7969 63.9854 12.564 65.0488 12.564C66.6045 12.564 67.8042 13.0342 68.6479 13.9746C69.5005 14.9062 69.9268 16.2026 69.9268 17.8638V27H66.0771V18.668C66.0771 17.7363 65.8618 17.02 65.4312 16.519C65.0005 16.0093 64.3501 15.7544 63.48 15.7544C62.9087 15.7544 62.4121 15.8862 61.9902 16.1499C61.5684 16.4048 61.2388 16.7651 61.0015 17.231C60.7729 17.6968 60.6587 18.2417 60.6587 18.8657V27H56.8091ZM75.0703 27L70.1792 12.854H74.2925L77.2456 23.5854H77.3247L80.2515 12.854H84.2725L79.4209 27H75.0703ZM90.6685 27.29C89.2358 27.29 87.9922 26.9956 86.9375 26.4067C85.8916 25.8179 85.083 24.9741 84.5117 23.8755C83.9404 22.7769 83.6548 21.4629 83.6548 19.9336V19.9072C83.6548 18.3867 83.9448 17.0771 84.5249 15.9785C85.105 14.8799 85.918 14.0361 86.9639 13.4473C88.0186 12.8584 89.249 12.564 90.6553 12.564C92.0791 12.564 93.314 12.8584 94.3599 13.4473C95.4058 14.0273 96.2188 14.8667 96.7988 15.9653C97.3789 17.064 97.6689 18.3779 97.6689 19.9072V19.9336C97.6689 21.4717 97.3833 22.79 96.812 23.8887C96.2407 24.9873 95.4321 25.8311 94.3862 26.4199C93.3403 27 92.1011 27.29 90.6685 27.29ZM90.6816 24.271C91.3057 24.271 91.8462 24.104 92.3032 23.77C92.769 23.4272 93.125 22.9351 93.3711 22.2935C93.626 21.6431 93.7534 20.8564 93.7534 19.9336V19.9072C93.7534 18.9932 93.626 18.2153 93.3711 17.5737C93.1162 16.9233 92.7559 16.4312 92.29 16.0972C91.8242 15.7544 91.2793 15.583 90.6553 15.583C90.04 15.583 89.4995 15.7544 89.0337 16.0972C88.5679 16.4312 88.2075 16.9233 87.9526 17.5737C87.6978 18.2153 87.5703 18.9932 87.5703 19.9072V19.9336C87.5703 20.8564 87.6978 21.6431 87.9526 22.2935C88.2075 22.9351 88.5635 23.4272 89.0205 23.77C89.4863 24.104 90.04 24.271 90.6816 24.271ZM100.4 31.6802C100.031 31.6802 99.6748 31.6626 99.332 31.6274C98.9893 31.5923 98.7036 31.5571 98.4751 31.522V28.6479C98.6069 28.6743 98.7827 28.7007 99.0024 28.7271C99.2222 28.7622 99.4727 28.7798 99.7539 28.7798C100.334 28.7798 100.791 28.6787 101.125 28.4766C101.468 28.2832 101.723 27.9492 101.89 27.4746L102.048 27L97.0513 12.854H101.283L104.487 24.7061L103.959 23.9019H104.698L104.17 24.7061L107.374 12.854H111.435L106.583 27.2505C106.214 28.3579 105.748 29.2368 105.186 29.8872C104.623 30.5376 103.946 30.999 103.155 31.2715C102.373 31.5439 101.455 31.6802 100.4 31.6802ZM117.778 27.29C116.336 27.29 115.093 26.9956 114.047 26.4067C113.01 25.8091 112.21 24.9609 111.647 23.8623C111.094 22.7637 110.817 21.4585 110.817 19.9468V19.9336C110.817 18.4395 111.094 17.1387 111.647 16.0312C112.21 14.9238 113.001 14.0713 114.021 13.4736C115.04 12.8672 116.24 12.564 117.62 12.564C119 12.564 120.195 12.8584 121.206 13.4473C122.216 14.0273 122.994 14.8535 123.539 15.9258C124.084 16.9893 124.356 18.2329 124.356 19.6567V20.8433H112.715V18.4175H122.537L120.718 20.6851V19.1953C120.718 18.3691 120.586 17.6792 120.322 17.1255C120.067 16.563 119.711 16.1411 119.254 15.8599C118.806 15.5786 118.283 15.438 117.686 15.438C117.088 15.438 116.556 15.583 116.09 15.873C115.633 16.1631 115.273 16.5894 115.009 17.1519C114.746 17.7144 114.614 18.3955 114.614 19.1953V20.6982C114.614 21.4805 114.746 22.1484 115.009 22.7021C115.273 23.2559 115.646 23.6821 116.13 23.981C116.613 24.271 117.189 24.416 117.857 24.416C118.384 24.416 118.841 24.3369 119.228 24.1787C119.615 24.0117 119.931 23.8008 120.177 23.5459C120.423 23.291 120.59 23.0317 120.678 22.7681L120.705 22.689H124.238L124.211 22.834C124.097 23.3525 123.886 23.8755 123.579 24.4028C123.28 24.9214 122.867 25.4004 122.339 25.8398C121.821 26.2793 121.184 26.6309 120.428 26.8945C119.672 27.1582 118.789 27.29 117.778 27.29ZM125.4 27V12.854H129.25V15.3062H129.342C129.553 14.436 129.935 13.7637 130.489 13.2891C131.051 12.8057 131.746 12.564 132.572 12.564C132.792 12.564 132.998 12.5771 133.191 12.6035C133.385 12.6299 133.556 12.6694 133.706 12.7222V16.0972C133.539 16.0356 133.328 15.9873 133.073 15.9521C132.827 15.9082 132.563 15.8862 132.282 15.8862C131.649 15.8862 131.104 16.0093 130.647 16.2554C130.19 16.5015 129.843 16.8618 129.605 17.3364C129.368 17.811 129.25 18.3911 129.25 19.0767V27H125.4Z" fill="#0E0E17"/>
<path d="M15.3948 28V35.5" stroke="url(#paint0_linear_201_736)" stroke-width="2.36842" stroke-linecap="round"/>
<path d="M7.5 30.1711V33.3289" stroke="url(#paint1_linear_201_736)" stroke-width="2.36842" stroke-linecap="round"/>
<path d="M23.2896 30.1711V33.3289" stroke="url(#paint2_linear_201_736)" stroke-width="2.36842" stroke-linecap="round"/>
<path d="M19.5842 2.09372C17.8102 -0.697908 13.7688 -0.697908 11.9947 2.09372L0.721063 19.8337C-1.20385 22.8627 0.950834 26.8421 4.51583 26.8421H7.1351C9.48869 26.8421 11.6249 25.466 12.5981 23.3231L13.4216 21.5098C14.1319 19.9458 16.3534 19.9458 17.0637 21.5098L17.8872 23.3231C18.8604 25.466 20.9966 26.8421 23.3502 26.8421H27.0631C30.6281 26.8421 32.7828 22.8627 30.8579 19.8337L19.5842 2.09372Z" fill="url(#paint3_linear_201_736)"/>
<defs>
<linearGradient id="paint0_linear_201_736" x1="15.8948" y1="28" x2="15.8948" y2="35.5" gradientUnits="userSpaceOnUse">
<stop stop-color="#FA342C"/>
<stop offset="1" stop-color="#FF5A08"/>
</linearGradient>
<linearGradient id="paint1_linear_201_736" x1="8" y1="30.1711" x2="8" y2="33.3289" gradientUnits="userSpaceOnUse">
<stop stop-color="#FA342C"/>
<stop offset="1" stop-color="#FF5A08"/>
</linearGradient>
<linearGradient id="paint2_linear_201_736" x1="23.7896" y1="30.1711" x2="23.7896" y2="33.3289" gradientUnits="userSpaceOnUse">
<stop stop-color="#FA342C"/>
<stop offset="1" stop-color="#FF5A08"/>
</linearGradient>
<linearGradient id="paint3_linear_201_736" x1="8.60173" y1="26.8421" x2="34.6291" y2="23.4578" gradientUnits="userSpaceOnUse">
<stop stop-color="#F9332B"/>
<stop offset="1" stop-color="#FF6100"/>
</linearGradient>
</defs>
</svg>
